<svg xmlns="http://www.w3.org/2000/svg" width="34" height="34" viewBox="0 0 34 34"><g id="Größe"><rect width="34" height="34" fill="none" opacity="0"/></g><g id="Icons_blue_solid_Kopie" data-name="Icons_blue_solid Kopie"><polygon points="20.03 26.11 -0.01 20.74 -0.01 13.2 20.03 7.83 20.55 9.77 1.99 14.74 1.99 19.2 20.55 24.18 20.03 26.11" fill="#9bfd9a"/><rect x="19.99" y="6" width="2" height="22" fill="#9bfd9a"/><polygon points="11.99 28 3.99 28 3.99 24 5.99 24 5.99 26 11.99 26 11.99 28" fill="#9bfd9a"/><path d="M25,22H24V20h1a3,3,0,0,0,2.42-1.23A3.05,3.05,0,0,0,27.85,16a3.09,3.09,0,0,0-3-2H24V12h.85a5,5,0,0,1,4.21,8A5,5,0,0,1,25,22Z" fill="#9bfd9a"/><path d="M25,26H24V24h1a7,7,0,0,0,5.42-2.57,7.08,7.08,0,0,0,1.43-5.89A7.16,7.16,0,0,0,24.71,10H24V8h.72a9.17,9.17,0,0,1,9.11,7.15A9,9,0,0,1,32,22.7,9,9,0,0,1,25,26Z" fill="#9bfd9a"/></g></svg>